<svg width="337" height="168" viewBox="0 0 337 168" fill="none" xmlns="http://www.w3.org/2000/svg">
<g clip-path="url(#clip0_14_65)">
<path d="M109.022 29.87C103.237 29.87 100.344 27.3451 100.344 22.2953V7.61179C100.344 2.56196 103.237 0.0370331 109.022 0.0370331H227.978C233.763 0.0370331 236.656 2.56196 236.656 7.61179V22.2953C236.656 27.3451 233.763 29.87 227.978 29.87H185.395V160.739C185.395 165.011 183.466 167.148 179.608 167.148H157.392C153.534 167.148 151.605 165.011 151.605 160.739V29.87H109.022Z" fill="white"/>
<path d="M42.5899 46.3787C45.8866 40.6277 54.1291 40.6277 57.4258 46.3787L98.8438 118.625C102.141 124.376 98.0195 131.564 91.4256 131.564H8.59012C1.99622 131.564 -2.1248 124.376 1.17192 118.625L42.5899 46.3787Z" fill="white"/>
<path d="M279.574 151.333C282.871 157.084 291.113 157.084 294.41 151.333L335.828 79.087C339.125 73.336 335.004 66.1476 328.41 66.1476H245.574C238.98 66.1476 234.859 73.336 238.156 79.087L279.574 151.333Z" fill="white"/>
</g>
<defs>
<clipPath id="clip0_14_65">
<rect width="337" height="168" fill="white"/>
</clipPath>
</defs>
</svg>
